<svg xmlns="http://www.w3.org/2000/svg" viewBox="285.41 285.41 398.197 58.462"><defs><linearGradient id="a" x1="297.714" x2="902.283" y1="297.714" y2="297.714" gradientTransform="translate(264.75 288.965) scale(.07443)" gradientUnits="userSpaceOnUse"><stop offset="0" stop-color="#2e68f6" stop-opacity=".992"/><stop offset="1" stop-color="#601fd2" stop-opacity=".996"/></linearGradient></defs><path fill="url(#a)" fill-rule="evenodd" d="m287.804 336.462 18.769 18.768a3.068 3.068 0 0 0 4.331 0l20.043-20.042a2.96 2.96 0 0 0 .897-2.155l.066-18.834a2.96 2.96 0 0 0-.897-2.177 2.962 2.962 0 0 0-2.177-.897l-18.835.066a2.961 2.961 0 0 0-2.155.897l-20.042 20.042a3.07 3.07 0 0 0 0 4.331zm40.266-21.497a2.873 2.873 0 0 1-4.061 4.062 2.872 2.872 0 0 1 4.06-4.062zm-17.72 13.906c-1.221 1.222-2.397 1.86-3.53 1.92-1.132.055-2.163-.38-3.097-1.314-.576-.576-.97-1.218-1.17-1.93-.206-.71-.17-1.46.112-2.254.282-.792.813-1.579 1.585-2.352.832-.832 1.625-1.429 2.382-1.786.75-.356 1.495-.458 2.228-.3.734.157 1.445.579 2.136 1.27.498.498.862 1.013 1.084 1.543.223.531.31 1.088.254 1.668-.053.577-.246 1.157-.574 1.74-.324.58-.793 1.18-1.41 1.795zm-1.69-1.887c.836-.836 1.357-1.534 1.56-2.097.2-.56.072-1.068-.383-1.523-.312-.312-.65-.466-1.01-.466-.367 0-.763.141-1.186.432-.422.286-.907.705-1.458 1.256-.57.57-1.003 1.068-1.29 1.494-.292.422-.44.819-.443 1.183 0 .36.153.698.471 1.015.476.475 1 .593 1.573.36.574-.232 1.295-.783 2.166-1.654zm4.58 18.655c-1.221 1.221-2.397 1.86-3.531 1.92-1.13.056-2.162-.38-3.096-1.314-.584-.583-.977-1.232-1.177-1.943-.203-.714-.167-1.464.105-2.255.275-.792.8-1.578 1.58-2.358 1.247-1.248 2.423-1.946 3.531-2.104 1.107-.15 2.175.29 3.214 1.327.498.499.859 1.01 1.078 1.537a3.51 3.51 0 0 1 .268 1.65c-.043.574-.226 1.15-.556 1.737-.332.587-.8 1.187-1.416 1.802zm-1.69-1.887c.822-.823 1.34-1.518 1.54-2.077.2-.56.075-1.066-.38-1.521-.32-.321-.659-.481-1.02-.481-.356.002-.746.137-1.17.415-.421.272-.91.689-1.467 1.245-.858.859-1.392 1.576-1.608 2.153-.213.58-.092 1.1.37 1.563.469.468.99.583 1.57.35.58-.232 1.3-.783 2.165-1.648zm7.638-10.901-20.884 4.888c-.558.151-.966.095-1.222-.16-.148-.148-.239-.351-.276-.61a.751.751 0 0 1 .217-.662c.134-.134.36-.229.681-.294l21.044-4.95c.376-.096.678-.149.9-.162.224-.012.434.08.633.279.194.194.292.403.298.632.007.23-.085.439-.269.623-.134.134-.507.272-1.123.416z" transform="translate(-1.5 -25)"/><g style="line-height:1.25"><path d="M335.158 356.99v-44.7h14.64q6.96 0 12.06 2.82 5.16 2.76 7.98 7.8 2.82 5.04 2.82 11.7 0 6.6-2.82 11.7-2.82 5.04-7.98 7.86-5.1 2.82-12.06 2.82zm7.08-6.3h7.68q4.74 0 8.22-1.98 3.54-1.98 5.46-5.58t1.92-8.52q0-4.92-1.98-8.46-1.92-3.6-5.4-5.58-3.48-1.98-8.22-1.98h-7.68zm51.96 7.02q-4.86 0-8.64-2.22-3.72-2.28-5.82-6.12-2.1-3.9-2.1-8.7 0-4.92 2.1-8.7 2.16-3.78 5.76-5.94 3.6-2.22 8.16-2.22 3.66 0 6.54 1.26t4.86 3.48q1.98 2.16 3 4.98 1.08 2.82 1.08 6 0 .78-.06 1.62-.06.84-.24 1.56h-25.86v-5.4h22.02l-3.24 2.46q.6-2.94-.42-5.22-.96-2.34-3-3.66-1.98-1.38-4.68-1.38-2.7 0-4.8 1.38-2.1 1.32-3.24 3.84-1.14 2.46-.9 6-.3 3.3.9 5.76 1.26 2.46 3.48 3.84 2.28 1.38 5.16 1.38 2.94 0 4.98-1.32 2.1-1.32 3.3-3.42l5.52 2.7q-.96 2.28-3 4.14-1.98 1.8-4.8 2.88-2.76 1.02-6.06 1.02zm33.54 0q-4.98 0-8.76-2.46-3.72-2.46-5.22-6.6l5.22-2.46q1.32 2.76 3.6 4.38 2.34 1.62 5.16 1.62 2.4 0 3.9-1.08t1.5-2.94q0-1.2-.66-1.92-.66-.78-1.68-1.26-.96-.48-1.98-.72l-5.1-1.44q-4.2-1.2-6.3-3.6-2.04-2.46-2.04-5.7 0-2.94 1.5-5.1 1.5-2.22 4.14-3.42 2.64-1.2 5.94-1.2 4.44 0 7.92 2.22 3.48 2.16 4.92 6.06l-5.22 2.46q-.96-2.34-3.06-3.72-2.04-1.38-4.62-1.38-2.22 0-3.54 1.08-1.32 1.02-1.32 2.7 0 1.14.6 1.92.6.72 1.56 1.2.96.42 1.98.72l5.28 1.56q4.02 1.14 6.18 3.6 2.16 2.4 2.16 5.76 0 2.88-1.56 5.1-1.5 2.16-4.2 3.42-2.7 1.2-6.3 1.2zm34.14 0q-4.86 0-8.64-2.22-3.72-2.28-5.94-6.12-2.16-3.84-2.16-8.7 0-4.8 2.16-8.64 2.16-3.84 5.94-6 3.78-2.22 8.64-2.22 3.3 0 6.18 1.2 2.88 1.14 4.98 3.18 2.16 2.04 3.18 4.74l-5.94 2.76q-1.02-2.52-3.3-4.02-2.22-1.56-5.1-1.56-2.76 0-4.98 1.38-2.16 1.32-3.42 3.78-1.26 2.4-1.26 5.46t1.26 5.52q1.26 2.4 3.42 3.78 2.22 1.38 4.98 1.38 2.94 0 5.1-1.5 2.22-1.56 3.3-4.14l5.94 2.82q-.96 2.58-3.12 4.68-2.1 2.04-4.98 3.24-2.88 1.2-6.24 1.2zm32.52 0q-3.66 0-6.42-1.62-2.76-1.68-4.32-4.62-1.5-3-1.5-6.9v-20.04h6.78v19.44q0 2.22.9 3.9.9 1.68 2.52 2.64 1.62.9 3.72.9 2.16 0 3.78-.96 1.62-.96 2.52-2.7.96-1.74.96-4.08v-19.14h6.72v32.46h-6.42v-6.36l.72.84q-1.14 3-3.78 4.62-2.64 1.62-6.18 1.62zm38.82 0q-4.86 0-8.64-2.22-3.72-2.28-5.82-6.12-2.1-3.9-2.1-8.7 0-4.92 2.1-8.7 2.16-3.78 5.76-5.94 3.6-2.22 8.16-2.22 3.66 0 6.54 1.26t4.86 3.48q1.98 2.16 3 4.98 1.08 2.82 1.08 6 0 .78-.06 1.62-.06.84-.24 1.56h-25.86v-5.4h22.02l-3.24 2.46q.6-2.94-.42-5.22-.96-2.34-3-3.66-1.98-1.38-4.68-1.38-2.7 0-4.8 1.38-2.1 1.32-3.24 3.84-1.14 2.46-.9 6-.3 3.3.9 5.76 1.26 2.46 3.48 3.84 2.28 1.38 5.16 1.38 2.94 0 4.98-1.32 2.1-1.32 3.3-3.42l5.52 2.7q-.96 2.28-3 4.14-1.98 1.8-4.8 2.88-2.76 1.02-6.06 1.02zm21.54-.72v-32.46h6.48v6.36l-.78-.84q1.2-3.06 3.84-4.62 2.64-1.62 6.12-1.62 3.6 0 6.36 1.56 2.76 1.56 4.32 4.32 1.56 2.76 1.56 6.36v20.94h-6.72v-19.14q0-2.46-.9-4.14-.9-1.74-2.58-2.64-1.62-.96-3.72-.96t-3.78.96q-1.62.9-2.52 2.64-.9 1.74-.9 4.14v19.14zm49.2.36q-5.1 0-7.92-2.88-2.82-2.88-2.82-8.1v-15.72h-5.7v-6.12h.9q2.28 0 3.54-1.32 1.26-1.32 1.26-3.6v-2.52h6.78v7.44h7.38v6.12h-7.38v15.42q0 1.68.54 2.88.54 1.14 1.74 1.8 1.2.6 3.12.6.48 0 1.08-.06.6-.06 1.14-.12v5.82q-.84.12-1.86.24t-1.8.12zm10.26-.36v-32.46h6.78v32.46zm0-36.9v-7.8h6.78v7.8zm18.36 36.9v-26.34h-6v-6.12h6v-1.68q0-3.66 1.5-6.12 1.5-2.52 4.14-3.84 2.7-1.32 6.18-1.32.66 0 1.5.12.84.06 1.38.18v5.88q-.48-.12-1.08-.12-.6-.06-.96-.06-2.7 0-4.32 1.26-1.62 1.2-1.62 4.02v1.68h7.44v6.12h-7.44v26.34zm23.34 13.26q-1.2 0-2.4-.24-1.14-.18-2.1-.6v-5.82q.72.18 1.74.3 1.02.18 1.98.18 2.82 0 4.14-1.26 1.38-1.2 2.46-3.78l2.16-4.92-.12 5.7-14.04-35.28h7.26l10.38 27.06h-2.46l10.32-27.06h7.32l-14.34 36q-1.14 2.88-2.88 5.04-1.68 2.22-4.02 3.42-2.28 1.26-5.4 1.26z" aria-label="Descuentify" font-family="Plus Jakarta Sans" font-size="60" font-weight="600" style="-inkscape-font-specification:'Plus Jakarta Sans Semi-Bold'" transform="matrix(1.00373 0 0 .99628 -1.5 -25)"/></g></svg>